<mxfile host="app.diagrams.net" modified="2022-02-08T20:17:38.691Z" agent="5.0 (Windows NT 10.0; Win64; x64) AppleWebKit/537.36 (KHTML, like Gecko) Chrome/97.0.4692.99 Safari/537.36" etag="imydIC8DxmXIgTDddbhk" version="16.1.0" type="github">
  <diagram id="C5RBs43oDa-KdzZeNtuy" name="Page-1">
    <mxGraphModel dx="328" dy="184" grid="1" gridSize="10" guides="1" tooltips="1" connect="1" arrows="1" fold="1" page="1" pageScale="1" pageWidth="827" pageHeight="1169" math="0" shadow="0">
      <root>
        <mxCell id="WIyWlLk6GJQsqaUBKTNV-0" />
        <mxCell id="WIyWlLk6GJQsqaUBKTNV-1" parent="WIyWlLk6GJQsqaUBKTNV-0" />
        <mxCell id="QvG_tltzTtsuW_8JRA0w-0" value="muitiem" style="rounded=0;whiteSpace=wrap;html=1;fontSize=16;" vertex="1" parent="WIyWlLk6GJQsqaUBKTNV-1">
          <mxGeometry x="90" y="80" width="120" height="60" as="geometry" />
        </mxCell>
        <mxCell id="QvG_tltzTtsuW_8JRA0w-1" value="loaivacxin" style="rounded=0;whiteSpace=wrap;html=1;fontSize=16;" vertex="1" parent="WIyWlLk6GJQsqaUBKTNV-1">
          <mxGeometry x="294" y="90" width="120" height="60" as="geometry" />
        </mxCell>
        <mxCell id="QvG_tltzTtsuW_8JRA0w-2" value="bacsi" style="rounded=0;whiteSpace=wrap;html=1;fontSize=16;" vertex="1" parent="WIyWlLk6GJQsqaUBKTNV-1">
          <mxGeometry x="354" y="350" width="120" height="60" as="geometry" />
        </mxCell>
        <mxCell id="QvG_tltzTtsuW_8JRA0w-3" value="nguoilon" style="rounded=0;whiteSpace=wrap;html=1;fontSize=16;" vertex="1" parent="WIyWlLk6GJQsqaUBKTNV-1">
          <mxGeometry x="360" y="220" width="120" height="60" as="geometry" />
        </mxCell>
        <mxCell id="QvG_tltzTtsuW_8JRA0w-4" value="treem" style="rounded=0;whiteSpace=wrap;html=1;fontSize=16;" vertex="1" parent="WIyWlLk6GJQsqaUBKTNV-1">
          <mxGeometry x="130" y="380" width="120" height="60" as="geometry" />
        </mxCell>
        <mxCell id="QvG_tltzTtsuW_8JRA0w-5" value="khachhang" style="rounded=0;whiteSpace=wrap;html=1;fontSize=16;" vertex="1" parent="WIyWlLk6GJQsqaUBKTNV-1">
          <mxGeometry x="530" y="240" width="120" height="60" as="geometry" />
        </mxCell>
        <mxCell id="QvG_tltzTtsuW_8JRA0w-6" value="lichtc" style="rounded=0;whiteSpace=wrap;html=1;fontSize=16;" vertex="1" parent="WIyWlLk6GJQsqaUBKTNV-1">
          <mxGeometry x="460" y="90" width="120" height="60" as="geometry" />
        </mxCell>
        <mxCell id="QvG_tltzTtsuW_8JRA0w-9" value="vacxin" style="rounded=0;whiteSpace=wrap;html=1;fontSize=16;" vertex="1" parent="WIyWlLk6GJQsqaUBKTNV-1">
          <mxGeometry x="50" y="170" width="120" height="60" as="geometry" />
        </mxCell>
        <mxCell id="QvG_tltzTtsuW_8JRA0w-10" value="nhasanxuat" style="rounded=0;whiteSpace=wrap;html=1;fontSize=16;" vertex="1" parent="WIyWlLk6GJQsqaUBKTNV-1">
          <mxGeometry x="190" y="190" width="120" height="60" as="geometry" />
        </mxCell>
        <mxCell id="QvG_tltzTtsuW_8JRA0w-11" value="" style="endArrow=none;html=1;rounded=0;fontSize=16;entryX=0.6;entryY=1.017;entryDx=0;entryDy=0;entryPerimeter=0;exitX=0.5;exitY=0;exitDx=0;exitDy=0;" edge="1" parent="WIyWlLk6GJQsqaUBKTNV-1" source="QvG_tltzTtsuW_8JRA0w-12" target="QvG_tltzTtsuW_8JRA0w-3">
          <mxGeometry width="50" height="50" relative="1" as="geometry">
            <mxPoint x="400" y="290" as="sourcePoint" />
            <mxPoint x="450" y="240" as="targetPoint" />
          </mxGeometry>
        </mxCell>
        <mxCell id="QvG_tltzTtsuW_8JRA0w-12" value="trên 18 tuổi" style="rhombus;whiteSpace=wrap;html=1;fontSize=16;" vertex="1" parent="WIyWlLk6GJQsqaUBKTNV-1">
          <mxGeometry x="540" y="340" width="160" height="60" as="geometry" />
        </mxCell>
        <mxCell id="QvG_tltzTtsuW_8JRA0w-13" value="đăng ký" style="rhombus;whiteSpace=wrap;html=1;fontSize=16;" vertex="1" parent="WIyWlLk6GJQsqaUBKTNV-1">
          <mxGeometry x="570" y="430" width="160" height="60" as="geometry" />
        </mxCell>
        <mxCell id="QvG_tltzTtsuW_8JRA0w-14" value="đăng ký" style="rhombus;whiteSpace=wrap;html=1;fontSize=16;" vertex="1" parent="WIyWlLk6GJQsqaUBKTNV-1">
          <mxGeometry x="260" y="430" width="160" height="60" as="geometry" />
        </mxCell>
        <mxCell id="QvG_tltzTtsuW_8JRA0w-15" value="dưới18 tuổi" style="rhombus;whiteSpace=wrap;html=1;fontSize=16;" vertex="1" parent="WIyWlLk6GJQsqaUBKTNV-1">
          <mxGeometry x="600" y="150" width="160" height="60" as="geometry" />
        </mxCell>
        <mxCell id="QvG_tltzTtsuW_8JRA0w-16" value="phân loại" style="rhombus;whiteSpace=wrap;html=1;fontSize=16;" vertex="1" parent="WIyWlLk6GJQsqaUBKTNV-1">
          <mxGeometry x="80" y="270" width="160" height="60" as="geometry" />
        </mxCell>
        <mxCell id="QvG_tltzTtsuW_8JRA0w-17" value="đăng ký" style="rhombus;whiteSpace=wrap;html=1;fontSize=16;" vertex="1" parent="WIyWlLk6GJQsqaUBKTNV-1">
          <mxGeometry x="280" y="450" width="160" height="60" as="geometry" />
        </mxCell>
        <mxCell id="QvG_tltzTtsuW_8JRA0w-18" value="số mũi cần tiêm" style="rhombus;whiteSpace=wrap;html=1;fontSize=16;" vertex="1" parent="WIyWlLk6GJQsqaUBKTNV-1">
          <mxGeometry x="620" y="20" width="160" height="60" as="geometry" />
        </mxCell>
        <mxCell id="QvG_tltzTtsuW_8JRA0w-19" value="loaivx_ma" style="ellipse;whiteSpace=wrap;html=1;fontSize=16;" vertex="1" parent="WIyWlLk6GJQsqaUBKTNV-1">
          <mxGeometry x="250" y="20" width="100" height="50" as="geometry" />
        </mxCell>
        <mxCell id="QvG_tltzTtsuW_8JRA0w-20" value="loaivx_ten" style="ellipse;whiteSpace=wrap;html=1;fontSize=16;" vertex="1" parent="WIyWlLk6GJQsqaUBKTNV-1">
          <mxGeometry x="364" y="20" width="100" height="50" as="geometry" />
        </mxCell>
        <mxCell id="QvG_tltzTtsuW_8JRA0w-21" value="" style="endArrow=none;html=1;rounded=0;fontSize=16;entryX=0.591;entryY=0.021;entryDx=0;entryDy=0;entryPerimeter=0;exitX=0.469;exitY=1.022;exitDx=0;exitDy=0;exitPerimeter=0;" edge="1" parent="WIyWlLk6GJQsqaUBKTNV-1" source="QvG_tltzTtsuW_8JRA0w-20" target="QvG_tltzTtsuW_8JRA0w-1">
          <mxGeometry width="50" height="50" relative="1" as="geometry">
            <mxPoint x="400" y="70" as="sourcePoint" />
            <mxPoint x="450" y="20" as="targetPoint" />
          </mxGeometry>
        </mxCell>
        <mxCell id="QvG_tltzTtsuW_8JRA0w-22" value="" style="endArrow=none;html=1;rounded=0;fontSize=16;entryX=0.5;entryY=1;entryDx=0;entryDy=0;" edge="1" parent="WIyWlLk6GJQsqaUBKTNV-1" source="QvG_tltzTtsuW_8JRA0w-1" target="QvG_tltzTtsuW_8JRA0w-19">
          <mxGeometry width="50" height="50" relative="1" as="geometry">
            <mxPoint x="420.9000000000001" y="81.1" as="sourcePoint" />
            <mxPoint x="339.32000000000005" y="91.26000000000005" as="targetPoint" />
          </mxGeometry>
        </mxCell>
      </root>
    </mxGraphModel>
  </diagram>
</mxfile>
